<svg id="visual" viewBox="0 0 900 600" width="900" height="600" xmlns="http://www.w3.org/2000/svg" xmlns:xlink="http://www.w3.org/1999/xlink" version="1.1"><rect x="0" y="0" width="900" height="600" fill="#fff"></rect><defs><linearGradient id="grad1_0" x1="33.3%" y1="100%" x2="100%" y2="0%"><stop offset="20%" stop-color="#6c63ff" stop-opacity="1"></stop><stop offset="80%" stop-color="#6c63ff" stop-opacity="1"></stop></linearGradient></defs><defs><linearGradient id="grad1_1" x1="33.3%" y1="100%" x2="100%" y2="0%"><stop offset="20%" stop-color="#6c63ff" stop-opacity="1"></stop><stop offset="80%" stop-color="#ffffff" stop-opacity="1"></stop></linearGradient></defs><defs><linearGradient id="grad2_0" x1="0%" y1="100%" x2="66.7%" y2="0%"><stop offset="20%" stop-color="#6c63ff" stop-opacity="1"></stop><stop offset="80%" stop-color="#6c63ff" stop-opacity="1"></stop></linearGradient></defs><defs><linearGradient id="grad2_1" x1="0%" y1="100%" x2="66.7%" y2="0%"><stop offset="20%" stop-color="#ffffff" stop-opacity="1"></stop><stop offset="80%" stop-color="#6c63ff" stop-opacity="1"></stop></linearGradient></defs><g transform="translate(900, 600)"><path d="M-270.4 0C-252.8 -25.2 -235.3 -50.5 -222.5 -72.3C-209.8 -94.2 -202 -112.6 -195 -141.7C-187.9 -170.7 -181.7 -210.2 -158.9 -218.8C-136.2 -227.3 -96.9 -204.8 -67.7 -208.3C-38.4 -211.7 -19.2 -241.1 0 -270.4L0 0Z" fill="#c0afff"></path><path d="M-135.2 0C-126.4 -12.6 -117.6 -25.2 -111.3 -36.2C-104.9 -47.1 -101 -56.3 -97.5 -70.8C-94 -85.3 -90.9 -105.1 -79.5 -109.4C-68.1 -113.7 -48.5 -102.4 -33.8 -104.1C-19.2 -105.9 -9.6 -120.5 0 -135.2L0 0Z" fill="#6c63ff"></path></g><g transform="translate(0, 0)"><path d="M270.4 0C246.9 23.5 223.5 46.9 208.3 67.7C193.1 88.4 186.2 106.4 179.6 130.5C173 154.5 166.7 184.6 151.1 207.9C135.4 231.3 110.3 247.9 83.6 257.2C56.8 266.5 28.4 268.4 0 270.4L0 0Z" fill="#c0afff"></path><path d="M135.2 0C123.5 11.7 111.7 23.5 104.1 33.8C96.5 44.2 93.1 53.2 89.8 65.2C86.5 77.3 83.4 92.3 75.5 104C67.7 115.6 55.2 123.9 41.8 128.6C28.4 133.2 14.2 134.2 0 135.2L0 0Z" fill="#6c63ff"></path></g></svg>